<?xml version="1.0" encoding="UTF-8"?>
<svg id="Layer_2" data-name="Layer 2" xmlns="http://www.w3.org/2000/svg" xmlns:xlink="http://www.w3.org/1999/xlink" viewBox="0 0 1602.5 348.44">
  <defs>
    <style>
      .cls-1 {
        fill: url(#linear-gradient);
      }

      .cls-1, .cls-2, .cls-3 {
        stroke-width: 0px;
      }

      .cls-2 {
        fill: #fff;
      }

      .cls-3 {
        fill: url(#linear-gradient-2);
      }
    </style>
    <linearGradient id="linear-gradient" x1="4.28" y1="175.26" x2="499.35" y2="175.26" gradientUnits="userSpaceOnUse">
      <stop offset="0" stop-color="#fe0057"/>
      <stop offset=".12" stop-color="#fa005c"/>
      <stop offset=".29" stop-color="#f0006d"/>
      <stop offset=".47" stop-color="#e00088"/>
      <stop offset=".67" stop-color="#ca00ae"/>
      <stop offset=".88" stop-color="#ae00df"/>
      <stop offset="1" stop-color="#9c00fe"/>
    </linearGradient>
    <linearGradient id="linear-gradient-2" x1="1533.93" y1="68.14" x2="1602.5" y2="68.14" xlink:href="#linear-gradient"/>
  </defs>
  <g id="Layer_1-2" data-name="Layer 1">
    <path class="cls-2" d="m151.45,256.47c-20.06-16.2-30.47-38.51-31.22-66.92h54.21c.75,14.71,6.23,26.05,16.45,34.02,10.22,7.98,24.18,11.96,41.87,11.96,15.2,0,27.17-2.93,35.89-8.79,8.72-5.86,13.08-14.02,13.08-24.49,0-8.72-3.11-15.39-9.35-20-6.23-4.61-16.7-8.79-31.4-12.52l-48.98-12.34c-20.94-5.23-37.07-14.21-48.41-26.92-11.34-12.71-17.01-28.41-17.01-47.11,0-23.18,8.6-42.87,25.8-59.07C169.33,8.1,193.88,0,226.03,0s57.82,7.98,77.02,23.93c19.19,16.2,29.66,37.39,31.4,63.56h-53.84c-1.74-13.21-7.48-23.55-17.2-31.03-9.72-7.48-22.06-11.22-37.01-11.22-13.46,0-24.18,2.99-32.15,8.97-7.98,5.98-11.96,13.71-11.96,23.18,0,14.7,10.34,24.67,31.03,29.91l53.09,13.09c48.35,11.71,72.53,37.26,72.53,76.64,0,25.92-9.41,46.36-28.23,61.31-18.82,14.96-44.68,22.43-77.57,22.43s-61.62-8.1-81.69-24.3Z"/>
    <path class="cls-2" d="m415.26,117.02v94.59c0,6.48,1.43,11.15,4.3,14.02,2.87,2.87,7.54,4.3,14.02,4.3h17.57v42.25h-34.39c-19.44,0-33.34-4.17-41.69-12.52-8.35-8.35-12.52-22.25-12.52-41.69v-100.94l-26.17,1.12v-38.88l26.17.75V19.82h52.71v60.56l35.89-1.12v38.88l-35.89-1.12Z"/>
    <path class="cls-2" d="m763.32,75.15v48.23c-6.48-.5-10.09-.75-10.84-.75-31.9,0-47.85,18.57-47.85,55.71v93.84h-52.71V79.26h51.59l-.75,25.8c8.48-21.69,23.06-32.53,43.74-32.53,6.23,0,11.84.87,16.82,2.62Z"/>
    <path class="cls-2" d="m851.55,117.02v94.59c0,6.48,1.43,11.15,4.3,14.02,2.87,2.87,7.54,4.3,14.02,4.3h17.57v42.25h-34.39c-19.44,0-33.34-4.17-41.69-12.52-8.35-8.35-12.52-22.25-12.52-41.69v-100.94l-26.17,1.12v-38.88l26.17.75V19.82h52.71v60.56l35.89-1.12v38.88l-35.89-1.12Z"/>
    <path class="cls-2" d="m1087.82,272.17l-17.95-55.33h-96.46l-17.94,55.33h-58.7L990.99,5.98h63.93l91.97,266.19h-59.07Zm-99.45-100.94h66.92l-10.84-32.9-22.43-76.64-22.81,76.64-10.84,32.9Z"/>
    <path class="cls-2" d="m1321.48,101.69c14.95,18.44,22.43,42.87,22.43,73.28s-7.73,55.58-23.18,74.77c-15.45,19.19-35.39,28.79-59.82,28.79-21.93,0-39.26-8.1-51.97-24.3v94.21h-52.71V79.26h46.73l1.87,25.05c13.21-19.94,33.27-29.91,60.19-29.91,22.68,0,41.5,9.1,56.45,27.29Zm-40.38,114.77c7.98-10.47,11.96-24.3,11.96-41.5s-3.99-30.97-11.96-41.31c-7.98-10.34-18.44-15.51-31.4-15.51s-23.43,5.17-31.4,15.51c-7.98,10.34-11.96,24.12-11.96,41.31s4.05,31.03,12.15,41.5c8.1,10.47,18.51,15.7,31.22,15.7s23.43-5.23,31.4-15.7Z"/>
    <path class="cls-2" d="m1520.74,101.69c14.95,18.44,22.43,42.87,22.43,73.28s-7.73,55.58-23.18,74.77c-15.45,19.19-35.39,28.79-59.82,28.79-21.93,0-39.26-8.1-51.97-24.3v94.21h-52.71V79.26h46.73l1.87,25.05c13.21-19.94,33.27-29.91,60.19-29.91,22.68,0,41.5,9.1,56.45,27.29Zm-40.38,114.77c7.98-10.47,11.96-24.3,11.96-41.5s-3.99-30.97-11.96-41.31c-7.98-10.34-18.44-15.51-31.4-15.51s-23.43,5.17-31.4,15.51c-7.98,10.34-11.96,24.12-11.96,41.31s4.05,31.03,12.15,41.5,18.51,15.7,31.22,15.7,23.43-5.23,31.4-15.7Z"/>
    <path class="cls-1" d="m78.7,286.57c-3.93-32.48,25.76-55.65,53.15-65.52,34.24-12.34,71.24-11.54,107.12-11.71,37.31-.17,74.44-2.85,111.28-8.94,33.96-5.62,69.5-12.58,100.76-27.52,27.84-13.31,56.55-39.69,52.22-73.62-4.65-36.53-47.76-39.89-76.99-39.89-36.61,0-72.33,7.52-107.27,17.97-34.34,10.28-67.94,22.97-102.67,31.97s-69.69,12.76-105.39,11.44c-31.21-1.15-60.79-8.94-88.03-24.43-5.44-3.09-10.71-6.44-15.86-10-5.12-3.54-9.94,4.82-4.87,8.33,23.77,16.44,51.02,28.39,79.64,32.97,31.78,5.09,65.51,4.04,97.25-.72,70.75-10.61,135.48-44.78,206.32-55.07,17.97-2.61,36.26-3.45,54.39-2.52,15.38.79,35.39,2.69,46.64,14.6,12,12.7,8.21,33.25.14,46.9s-21.17,23.72-35.16,31.11c-14.84,7.83-30.98,12.91-47.16,17.17-17.4,4.58-35.02,8.34-52.75,11.38-36.55,6.26-73.47,9.02-110.53,9.23-35.43.2-71.81-.63-106,10.16-27.82,8.78-56.48,27.08-64.46,56.95-1.72,6.45-2.22,13.16-1.42,19.78.74,6.08,10.39,6.16,9.64,0h0Z"/>
    <path class="cls-2" d="m587.23,272.17c-2.74-12.46-4.11-18.94-4.11-19.44-13.71,16.7-33.52,25.05-59.44,25.05-20.19,0-36.39-5.36-48.6-16.08-12.21-10.72-18.32-24.92-18.32-42.62,0-31.15,19.56-50.59,58.7-58.32l67.3-13.46v-14.21c0-13.96-10.84-20.94-32.53-20.94-10.72,0-18.82,1.99-24.3,5.98-5.48,3.99-8.85,10.47-10.09,19.44l-48.23-.75c3.24-41.37,30.66-62.06,82.25-62.06,55.58,0,83.37,23.93,83.37,71.78v85.24c0,18.2,2.49,31.65,7.48,40.38h-53.46Zm-16.64-45.05c8.1-7.85,12.15-18.51,12.15-31.97v-14.21l-49.35,10.47c-16.7,3.24-25.05,11.34-25.05,24.3,0,6.98,2.68,12.59,8.04,16.82,5.36,4.24,12.77,6.36,22.25,6.36,13.21,0,23.86-3.93,31.96-11.78Z"/>
    <path class="cls-2" d="m266.41,120.38l-53.09-13.09c-20.69-5.23-31.03-15.2-31.03-29.91,0-9.47,3.99-17.2,11.96-23.18,7.98-5.98,18.69-8.97,32.15-8.97,14.95,0,27.29,3.74,37.01,11.22,5.69,4.38,9.97,9.77,12.93,16.11.31-.81.66-1.62,1.07-2.4,1.13-3.46,3.05-6.45,5.77-8.98,1.04-1.12,2.17-2.06,3.36-2.91,1.96-2.09,4.21-3.93,6.58-5.46,3.2-2.04,6.66-3.14,10.38-3.31,3.71-.83,7.42-.66,11.13.5,5.24,1.44,10,4.64,13.61,8.75-5.23-13.42-13.61-25.03-25.2-34.81C283.85,7.98,258.18,0,226.03,0s-56.7,8.1-73.65,24.3c-17.2,16.2-25.8,35.89-25.8,59.07,0,18.69,5.67,34.39,17.01,47.11,11.34,12.71,27.48,21.68,48.41,26.92l48.98,12.34c14.68,3.73,25.13,7.9,31.36,12.5,4.02-.38,7.99-.89,11.84-1.59,17.12-3.09,31.62-9.3,49.44-5.93.84.16,1.66.38,2.46.65-7.65-27.24-30.87-45.57-69.7-54.98Z"/>
    <rect class="cls-2" x="362.55" y="50.98" width="52.61" height="36.21"/>
    <rect class="cls-2" x="336.42" y="79.25" width="30.4" height="14.13"/>
    <path class="cls-3" d="m1568.29,34.91c9.63,0,17.76,3.22,24.4,9.67,6.54,6.45,9.81,14.3,9.81,23.55s-3.27,17.11-9.81,23.56c-6.64,6.45-14.77,9.67-24.4,9.67s-17.76-3.22-24.4-9.67c-6.64-6.45-9.95-14.3-9.95-23.56s3.32-17.1,9.95-23.55c6.64-6.45,14.77-9.67,24.4-9.67Zm19.35,52.16c5.23-5.23,7.85-11.54,7.85-18.93s-2.62-13.83-7.85-19.07-11.59-7.71-19.35-7.71-14.35,2.57-19.49,7.71-7.85,11.59-7.85,19.07,2.62,13.69,7.85,18.93c5.14,5.14,11.64,7.71,19.49,7.71s14.21-2.57,19.35-7.71Zm-5.61-7.01c.09,2.15.65,3.97,1.68,5.47h-6.31c-.84-1.12-1.31-2.94-1.4-5.47l-.28-3.65c-.19-1.96-.63-3.32-1.33-4.07-.7-.75-1.89-1.12-3.57-1.12h-9.67v14.3h-6.17v-35.61h15.14c3.93,0,6.99.86,9.18,2.59,2.2,1.73,3.3,4.18,3.3,7.36,0,4.11-1.73,6.92-5.19,8.41,2.52.93,3.92,3.13,4.21,6.59l.42,5.19Zm-11.36-14.44c3.74,0,5.61-1.68,5.61-5.05s-2.06-5.05-6.17-5.05h-8.97v10.1h9.53Z"/>
  </g>
</svg>