<?xml version="1.0" encoding="UTF-8"?>
<svg id="Layer_2" data-name="Layer 2" xmlns="http://www.w3.org/2000/svg" xmlns:xlink="http://www.w3.org/1999/xlink" viewBox="0 0 334.29 283.89">
  <defs>
    <style>
      .cls-1 {
        fill: url(#linear-gradient);
      }

      .cls-1, .cls-2, .cls-3 {
        stroke-width: 0px;
      }

      .cls-2 {
        fill: #fff;
      }

      .cls-3 {
        fill: url(#linear-gradient-2);
      }
    </style>
    <linearGradient id="linear-gradient" x1="283.98" y1="23.93" x2="333.34" y2="23.93" gradientUnits="userSpaceOnUse">
      <stop offset="0" stop-color="#fe0057"/>
      <stop offset=".12" stop-color="#fa005c"/>
      <stop offset=".29" stop-color="#f0006d"/>
      <stop offset=".47" stop-color="#e00088"/>
      <stop offset=".67" stop-color="#ca00ae"/>
      <stop offset=".88" stop-color="#ae00df"/>
      <stop offset="1" stop-color="#9c00fe"/>
    </linearGradient>
    <linearGradient id="linear-gradient-2" x1="3.76" y1="182.61" x2="330.83" y2="182.61" xlink:href="#linear-gradient"/>
  </defs>
  <g id="Layer_1-2" data-name="Layer 1">
    <path class="cls-1" d="m308.71,0c7,0,12.85,2.32,17.57,6.97s7.07,10.3,7.07,16.96-2.36,12.32-7.07,16.96c-4.71,4.64-10.57,6.96-17.57,6.96s-12.85-2.32-17.57-6.96c-4.78-4.64-7.17-10.3-7.17-16.96s2.39-12.32,7.17-16.96c4.71-4.64,10.57-6.97,17.57-6.97Zm0,44.52c5.92,0,10.97-1.99,15.14-5.96,4.04-3.97,6.06-8.85,6.06-14.64s-2.02-10.7-6.06-14.74c-4.17-3.97-9.22-5.96-15.14-5.96s-10.94,1.99-15.04,5.96c-4.11,4.04-6.16,8.95-6.16,14.74s2.05,10.74,6.16,14.64c4.11,3.97,9.12,5.96,15.04,5.96Zm10.2-11.1c.14,1.35.54,2.52,1.21,3.53h-3.23c-.6-.67-.94-1.85-1.01-3.53l-.3-3.53c-.13-1.61-.56-2.76-1.26-3.43-.71-.67-1.9-1.01-3.58-1.01h-8.28v11.51h-3.13V10.2h11.01c2.82,0,5.01.64,6.56,1.92,1.55,1.28,2.32,3.1,2.32,5.45,0,3.23-1.45,5.35-4.34,6.36,2.29.67,3.53,2.42,3.74,5.25l.3,4.24Zm-8.28-10.8c3.63,0,5.45-1.58,5.45-4.75s-1.92-4.84-5.75-4.84h-7.87v9.59h8.18Z"/>
    <path class="cls-2" d="m105.64,259.59c-20.06-16.2-30.47-38.51-31.22-66.92h54.21c.75,14.71,6.23,26.05,16.45,34.02,10.22,7.98,24.18,11.96,41.87,11.96,15.2,0,27.17-2.93,35.89-8.79,8.72-5.86,13.08-14.02,13.08-24.49,0-8.72-3.11-15.39-9.35-20-6.23-4.61-16.7-8.79-31.4-12.52l-48.98-12.34c-20.94-5.23-37.07-14.21-48.41-26.92-11.34-12.71-17.01-28.41-17.01-47.11,0-23.18,8.6-42.87,25.8-59.07C123.52,11.22,148.07,3.12,180.22,3.12s57.82,7.98,77.02,23.93c19.19,16.2,29.66,37.39,31.4,63.56h-53.84c-1.74-13.21-7.48-23.55-17.2-31.03-9.72-7.48-22.06-11.22-37.01-11.22-13.46,0-24.18,2.99-32.15,8.97-7.98,5.98-11.96,13.71-11.96,23.18,0,14.7,10.34,24.67,31.03,29.91l53.09,13.09c48.35,11.71,72.53,37.26,72.53,76.64,0,25.92-9.41,46.36-28.23,61.31-18.82,14.96-44.68,22.43-77.57,22.43s-61.62-8.1-81.69-24.3Z"/>
    <path class="cls-3" d="m1.23,135.15c16.12,14.97,35.64,26.03,56.89,31.83,23.02,6.29,48.06,7.02,71.75,5.15,22.58-1.78,44.91-6.61,65.81-15.45,10.43-4.41,20.24-9.87,29.69-16.09s19.44-13.46,30.06-18.67,22.18-8.23,33.73-6.7,20.39,8.16,26.45,17.72c10.61,16.73,17.07,43.58,3.16,60.36-6.71,8.09-16.77,12.43-26.63,15.31-11.85,3.47-24.16,5.51-36.42,6.79-25.15,2.62-50.49,1.84-75.71,1.01-28.62-.94-57.5-2.13-86,1.5-23.25,2.97-48.74,11.43-59.31,34.34-2.11,4.56,4.67,8.56,6.79,3.97,10.52-22.8,36.83-29.02,59.62-31.24,26.23-2.56,52.62-1.57,78.9-.71s51.83,1.64,77.59-1.21c20.93-2.32,46.05-5.57,62.56-19.97s16.7-37.33,10.41-56.39c-6.62-20.05-20.21-37.35-42.46-39.46-23.45-2.23-43.73,11.2-62.28,23.63-20.03,13.43-41.13,23.32-64.72,28.7-26.31,6.01-54.19,7.09-80.96,3.74-27.44-3.43-53.06-14.85-73.37-33.71-3.7-3.44-9.27,2.11-5.56,5.56h0Z"/>
    <path class="cls-2" d="m257.24,27.05c-19.19-15.95-44.86-23.93-77.02-23.93s-56.7,8.1-73.65,24.3c-17.2,16.2-25.8,35.89-25.8,59.07,0,18.69,5.67,34.39,17.01,47.11,9.01,10.1,21.06,17.83,36.13,23.21-.39-1.82-.59-3.7-.59-5.62,0-14.98,12.83-28.05,27.91-27.91,10.44.1,20.87,1.13,31.32,1,2.39-.03,4.78-.13,7.16-.3.36-.08,2.75-.38,3.81-.63,1.7-.4,3.48-.81,5.16-1.4-.54.12.48-.58,1.33-1.05l-42.51-10.48c-20.69-5.23-31.03-15.2-31.03-29.91,0-9.47,3.99-17.2,11.96-23.18,7.98-5.98,18.69-8.97,32.15-8.97,14.95,0,27.29,3.74,37.01,11.22,5.69,4.38,9.97,9.77,12.93,16.11.31-.81.66-1.62,1.07-2.4,1.13-3.46,3.05-6.45,5.77-8.98,1.04-1.12,2.17-2.06,3.36-2.91,1.96-2.09,4.21-3.93,6.58-5.46,3.2-2.04,6.66-3.14,10.38-3.31,3.71-.83,7.42-.66,11.13.5,5.24,1.44,10,4.64,13.61,8.75-5.23-13.42-13.61-25.03-25.2-34.81Z"/>
    <path class="cls-2" d="m257.51,143.45c1.7-.84,3.42-1.65,5.19-2.41-1.77-1.21-3.64-2.36-5.56-3.49.31,1.95.44,3.93.37,5.89Z"/>
    <path class="cls-2" d="m123.84,152.65c0-.17-.03-.34-.03-.51,0-14.94,12.83-28.1,27.91-27.91,13.25.17,26.77-3.42,40.32-7.76l-24.54-6.05c-20.69-5.23-31.03-15.2-31.03-29.91,0-9.47,3.99-17.2,11.96-23.18,7.98-5.98,18.69-8.97,32.15-8.97,14.95,0,27.29,3.74,37.01,11.22,9.72,7.48,15.45,17.82,17.2,31.03h53.84c-1.75-26.17-12.21-47.36-31.4-63.56-19.19-15.95-44.86-23.93-77.02-23.93s-56.7,8.1-73.65,24.3c-17.2,16.2-25.8,35.89-25.8,59.07,0,18.69,5.67,34.39,17.01,47.11,6.9,7.74,15.6,14.08,26.06,19.05Z"/>
    <path class="cls-2" d="m260.36,139.51c-2.5,9.39-9.68,17.5-19.45,20.04-15.16,3.95-29.89,9.29-44.85,13.54,14.23,3.68,24.42,7.77,30.52,12.29,6.23,4.61,9.35,11.28,9.35,20,0,10.47-4.36,18.63-13.08,24.49-8.72,5.86-20.69,8.79-35.89,8.79s-27.7-2.98-37.4-8.9c-2.78,12.17-14.8,21.6-27.3,21.6h-25.45c2.71,2.9,5.64,5.65,8.84,8.24,20.06,16.2,47.29,24.3,81.69,24.3s58.76-7.48,77.57-22.43c18.82-14.95,28.23-35.39,28.23-61.31s-10.93-46.67-32.76-60.64Z"/>
  </g>
</svg>